<?xml version="1.0" standalone="no"?>
<!DOCTYPE svg PUBLIC "-//W3C//DTD SVG 20010904//EN"
 "http://www.w3.org/TR/2001/REC-SVG-20010904/DTD/svg10.dtd">
<svg version="1.0" xmlns="http://www.w3.org/2000/svg"
 width="532.000000pt" height="448.000000pt" viewBox="0 0 532.000000 448.000000"
 preserveAspectRatio="xMidYMid meet">
<metadata>
Created by potrace 1.13, written by Peter Selinger 2001-2015
</metadata>
<g transform="translate(0.000000,448.000000) scale(0.100000,-0.100000)"
fill="#000000" stroke="none">
<path d="M2206 3935 c-941 -322 -1452 -1341 -1149 -2290 97 -303 305 -622 527
-808 l49 -41 -7 189 -7 190 -44 115 c-86 227 -101 250 -174 270 -85 23 -40 30
189 30 127 0 230 -4 230 -9 0 -5 -20 -14 -45 -20 -56 -14 -80 -46 -70 -93 17
-76 177 -492 206 -536 53 -78 111 -144 120 -135 4 4 43 114 87 243 l79 235
-36 90 c-61 151 -88 182 -173 200 -16 3 -28 10 -28 15 0 6 93 10 250 10 157 0
250 -4 250 -10 0 -5 -12 -12 -27 -16 -67 -14 -95 -27 -110 -50 -15 -23 -12
-34 51 -217 36 -105 99 -284 140 -397 64 -177 76 -202 83 -180 84 225 219 653
228 718 10 78 -14 106 -107 126 -16 4 -28 11 -28 16 0 6 69 10 180 10 99 0
180 -4 180 -9 0 -4 -20 -16 -45 -25 -47 -19 -84 -55 -115 -115 -10 -21 -84
-226 -163 -457 -80 -230 -154 -441 -166 -467 l-21 -48 23 -8 c99 -38 349 -38
491 -1 353 94 556 351 556 708 0 199 -42 305 -175 437 -125 125 -226 173 -760
357 -322 111 -423 150 -501 193 -290 161 -489 449 -524 757 -12 106 0 267 30
384 72 283 292 526 583 644 97 40 65 37 -57 -5z"/>
<path d="M2650 3945 c-358 -77 -565 -349 -547 -719 10 -212 77 -337 250 -470
142 -108 262 -160 757 -328 162 -55 341 -121 397 -148 337 -160 528 -401 578
-730 27 -175 15 -329 -36 -485 -38 -114 -84 -196 -167 -299 -61 -75 -63 -79
-26 -52 259 193 456 425 585 692 138 286 197 592 177 925 -21 367 -165 732
-406 1031 -62 76 -239 250 -274 269 -17 9 -18 -4 -18 -333 0 -213 -4 -358 -11
-382 -22 -81 -152 -172 -263 -183 -138 -14 -227 88 -147 168 56 56 151 24 151
-51 0 -32 -30 -70 -55 -70 -25 0 -17 -19 12 -26 34 -9 71 12 96 53 24 41 36
169 37 369 l0 151 -48 79 c-171 286 -421 487 -670 539 -85 18 -286 18 -372 0z"/>
<path d="M2138 987 c-43 -123 -78 -228 -78 -234 0 -17 144 -138 206 -174 51
-29 189 -89 205 -89 5 0 -5 37 -22 83 -17 45 -73 204 -126 352 -52 149 -98
273 -101 277 -4 4 -42 -93 -84 -215z"/>
</g>
</svg>
